<svg xmlns="http://www.w3.org/2000/svg" width="96" height="96" fill="none" viewBox="0 0 96 96" id="edit"><path stroke="#000" stroke-width="5" d="M46.5219 40.4655C47.0045 39.1658 47.7617 37.9856 48.742 37.0053L74.2137 11.5337C76.9345 8.81277 81.346 8.81277 84.0669 11.5337V11.5337C86.7878 14.2545 86.7878 18.666 84.0669 21.3869L58.5952 46.8585C57.615 47.8388 56.4347 48.596 55.135 49.0786L43.5612 53.3757C42.7275 53.6852 41.9153 52.873 42.2248 52.0393L46.5219 40.4655Z"></path><path stroke="#000" stroke-linecap="round" stroke-width="5" d="M48 10L25 10C16.7157 10 10 16.7157 10 25L10 71C10 79.2843 16.7157 86 25 86L71 86C79.2843 86 86 79.2843 86 71L86 48"></path></svg>